<svg xmlns="http://www.w3.org/2000/svg" width="20" height="14" viewBox="0 0 20 14">
  <defs>
    <style>
      .cls-1 {
        fill: #161616;
      }
    </style>
  </defs>
  <g id="_-Product-Icons" data-name="ðŸ”-Product-Icons" transform="translate(-2 -5)">
    <g id="ic_fluent_ticket_24_regular">
      <path id="_-Color" data-name="ðŸŽ¨-Color" class="cls-1" d="M20.25,5A1.75,1.75,0,0,1,22,6.75V9.01a.75.75,0,0,1-.688.748,2.25,2.25,0,0,0,0,4.485A.75.75,0,0,1,22,14.99v2.26A1.75,1.75,0,0,1,20.25,19H3.75A1.75,1.75,0,0,1,2,17.25V14.99a.75.75,0,0,1,.688-.747,2.25,2.25,0,0,0,0-4.485A.75.75,0,0,1,2,9.01V6.75A1.75,1.75,0,0,1,3.75,5Zm.25,3.385V6.75a.25.25,0,0,0-.25-.25H3.75a.25.25,0,0,0-.25.25V8.385a3.751,3.751,0,0,1,0,7.23V17.25a.25.25,0,0,0,.25.25h16.5a.25.25,0,0,0,.25-.25V15.615a3.752,3.752,0,0,1-.189-7.173Z"/>
    </g>
  </g>
</svg>
